<svg xmlns="http://www.w3.org/2000/svg" viewBox="0 0 80 80" fill="none">
  <!-- Ocean wave background -->
  <path d="M0 55 Q20 45 40 52 Q60 59 80 48 L80 80 L0 80 Z" fill="#0d7377" opacity="0.12"/>
  <path d="M0 65 Q25 55 50 62 Q70 68 80 60 L80 80 L0 80 Z" fill="#0d7377" opacity="0.08"/>

  <!-- Motorcycle -->
  <g transform="translate(8, 18)" fill="#2d2a26">
    <circle cx="14" cy="40" r="11" fill="none" stroke="#2d2a26" stroke-width="2.5"/>
    <circle cx="14" cy="40" r="3" fill="#2d2a26"/>
    <circle cx="54" cy="40" r="11" fill="none" stroke="#2d2a26" stroke-width="2.5"/>
    <circle cx="54" cy="40" r="3" fill="#2d2a26"/>
    <path d="M14 40 L28 18 L42 14 L54 40" stroke="#2d2a26" stroke-width="2.5" fill="none" stroke-linecap="round" stroke-linejoin="round"/>
    <path d="M28 18 L36 30 L46 30 L54 40" stroke="#2d2a26" stroke-width="2" fill="none" stroke-linecap="round" stroke-linejoin="round"/>
    <path d="M30 16 Q37 10 42 14" stroke="#2d2a26" stroke-width="2.5" fill="none" stroke-linecap="round"/>
    <path d="M42 14 L48 8 M45 10 L50 12" stroke="#2d2a26" stroke-width="2" fill="none" stroke-linecap="round"/>
  </g>

  <!-- Surfboard -->
  <g transform="translate(58, 10) rotate(12)">
    <ellipse cx="3" cy="22" rx="3" ry="20" fill="#0d7377" opacity="0.7"/>
    <line x1="3" y1="5" x2="3" y2="40" stroke="#ffffff" stroke-width="0.6" opacity="0.5"/>
  </g>
</svg>
